<svg width="48" height="48" viewBox="0 0 48 48" fill="none" xmlns="http://www.w3.org/2000/svg"><path d="M43.219 35.587a15 15 0 0 0-11.42-21.975A15 15 0 1 0 4.782 26.587l-1.162 4.05a2.606 2.606 0 0 0 3.243 3.244l4.05-1.162a15.15 15.15 0 0 0 5.288 1.669 15.002 15.002 0 0 0 20.887 7.33l4.05 1.163a2.606 2.606 0 0 0 3.244-3.243l-1.162-4.05Zm-2.888-.956a1.425 1.425 0 0 0-.169 1.163l1.163 4.031-4.031-1.163a1.425 1.425 0 0 0-1.163.17 12.038 12.038 0 0 1-16.575-4.407A15.037 15.037 0 0 0 33 19.5c-.004-.9-.086-1.796-.244-2.681A12 12 0 0 1 42 28.5a12.15 12.15 0 0 1-1.669 6.131Z" fill="#7F2D0F"></path></svg>