<svg width="48" height="48" viewBox="0 0 24 24" fill="none" xmlns="http://www.w3.org/2000/svg"><path d="M19.5 3.75h-15A1.5 1.5 0 0 0 3 5.25v5.503c0 8.381 7.106 11.166 8.531 11.634.303.113.635.113.938 0C13.894 21.92 21 19.134 21 10.753V5.25a1.5 1.5 0 0 0-1.5-1.5Zm-3.703 8.55-2.588.844 1.604 2.203a.74.74 0 0 1-.17 1.04.713.713 0 0 1-.44.15.77.77 0 0 1-.61-.309L12 14.025l-1.594 2.203a.769.769 0 0 1-.61.31.713.713 0 0 1-.44-.15.741.741 0 0 1-.168-1.041l1.603-2.203-2.588-.844a.75.75 0 0 1-.487-.938.76.76 0 0 1 .946-.487l2.588.844V9a.75.75 0 1 1 1.5 0v2.719l2.588-.844a.76.76 0 0 1 .946.488.75.75 0 0 1-.487.937Z" fill="#B9017A"></path></svg>