<svg width="76" height="24" viewBox="0 0 76 24" fill="none" xmlns="http://www.w3.org/2000/svg">
<rect width="76" height="24" fill="#F5F5F5"/>
<rect width="1440" height="4282" transform="translate(-120 -103)" fill="white"/>
<g clip-path="url(#clip0_0_1)">
<path d="M-40 -24H1240V48H-40V-24Z" fill="white"/>
<path d="M6.79688 19.0078C7.15625 19.0078 7.51172 18.9766 7.86328 18.9141C8.21484 18.8438 8.53516 18.7617 8.82422 18.668V20.7539C8.51953 20.8867 8.125 21 7.64062 21.0938C7.15625 21.1875 6.65234 21.2344 6.12891 21.2344C5.39453 21.2344 4.73438 21.1133 4.14844 20.8711C3.5625 20.6211 3.09766 20.1953 2.75391 19.5938C2.41016 18.9922 2.23828 18.1602 2.23828 17.0977V10.125H0.46875V8.89453L2.36719 7.92188L3.26953 5.14453H5.00391V8.02734H8.71875V10.125H5.00391V17.0625C5.00391 17.7188 5.16797 18.207 5.49609 18.5273C5.82422 18.8477 6.25781 19.0078 6.79688 19.0078Z" fill="#0A0A0A"/>
<path d="M13.7348 8.02734V21H10.9809V8.02734H13.7348ZM12.3755 3.05859C12.7973 3.05859 13.1606 3.17188 13.4653 3.39844C13.7778 3.625 13.9341 4.01562 13.9341 4.57031C13.9341 5.11719 13.7778 5.50781 13.4653 5.74219C13.1606 5.96875 12.7973 6.08203 12.3755 6.08203C11.938 6.08203 11.5669 5.96875 11.2622 5.74219C10.9653 5.50781 10.8169 5.11719 10.8169 4.57031C10.8169 4.01562 10.9653 3.625 11.2622 3.39844C11.5669 3.17188 11.938 3.05859 12.3755 3.05859Z" fill="#0A0A0A"/>
<path d="M22.4306 21.2344C21.2041 21.2344 20.1416 20.9961 19.2431 20.5195C18.3447 20.043 17.6533 19.3125 17.1689 18.3281C16.6845 17.3438 16.4423 16.0938 16.4423 14.5781C16.4423 13 16.708 11.7109 17.2392 10.7109C17.7705 9.71094 18.5048 8.97266 19.4423 8.49609C20.3877 8.01953 21.4697 7.78125 22.6884 7.78125C23.4619 7.78125 24.1611 7.85938 24.7861 8.01562C25.4189 8.16406 25.9541 8.34766 26.3916 8.56641L25.5713 10.7695C25.0947 10.5742 24.6064 10.4102 24.1064 10.2773C23.6064 10.1445 23.1259 10.0781 22.665 10.0781C21.9072 10.0781 21.2744 10.2461 20.7666 10.582C20.2666 10.918 19.8916 11.418 19.6416 12.082C19.3994 12.7461 19.2783 13.5703 19.2783 14.5547C19.2783 15.5078 19.4033 16.3125 19.6533 16.9688C19.9033 17.6172 20.2744 18.1094 20.7666 18.4453C21.2588 18.7734 21.8642 18.9375 22.583 18.9375C23.2939 18.9375 23.9306 18.8516 24.4931 18.6797C25.0556 18.5078 25.5869 18.2852 26.0869 18.0117V20.4023C25.5947 20.6836 25.0673 20.8906 24.5048 21.0234C23.9423 21.1641 23.2509 21.2344 22.4306 21.2344Z" fill="#0A0A0A"/>
<path d="M31.4077 2.76562V11.5781C31.4077 11.9766 31.392 12.4141 31.3608 12.8906C31.3295 13.3594 31.2983 13.8008 31.267 14.2148H31.3256C31.5287 13.9414 31.7709 13.6211 32.0522 13.2539C32.3412 12.8867 32.6147 12.5664 32.8725 12.293L36.8334 8.02734H39.9975L34.8061 13.6055L40.3373 21H37.103L32.9545 15.3047L31.4077 16.6289V21H28.6537V2.76562H31.4077Z" fill="#0A0A0A"/>
<path d="M47.0995 7.78125C48.2558 7.78125 49.248 8.01953 50.0761 8.49609C50.9042 8.97266 51.5409 9.64844 51.9863 10.5234C52.4316 11.3984 52.6542 12.4453 52.6542 13.6641V15.1406H43.9941C44.0253 16.3984 44.3613 17.3672 45.0019 18.0469C45.6503 18.7266 46.5566 19.0664 47.7206 19.0664C48.5488 19.0664 49.2909 18.9883 49.9472 18.832C50.6113 18.668 51.2948 18.4297 51.998 18.1172V20.3555C51.3495 20.6602 50.6894 20.8828 50.0175 21.0234C49.3456 21.1641 48.5409 21.2344 47.6034 21.2344C46.33 21.2344 45.2089 20.9883 44.2402 20.4961C43.2792 19.9961 42.5253 19.2539 41.9784 18.2695C41.4394 17.2852 41.1698 16.0625 41.1698 14.6016C41.1698 13.1484 41.4159 11.9141 41.9081 10.8984C42.4003 9.88281 43.0917 9.10938 43.9823 8.57812C44.873 8.04688 45.912 7.78125 47.0995 7.78125ZM47.0995 9.85547C46.2323 9.85547 45.5292 10.1367 44.9902 10.6992C44.4589 11.2617 44.1464 12.0859 44.0527 13.1719H49.9589C49.9511 12.5234 49.8417 11.9492 49.6308 11.4492C49.4277 10.9492 49.1152 10.5586 48.6933 10.2773C48.2792 9.99609 47.748 9.85547 47.0995 9.85547Z" fill="#0A0A0A"/>
<path d="M60.1078 19.0078C60.4672 19.0078 60.8227 18.9766 61.1742 18.9141C61.5258 18.8438 61.8461 18.7617 62.1352 18.668V20.7539C61.8305 20.8867 61.4359 21 60.9516 21.0938C60.4672 21.1875 59.9633 21.2344 59.4398 21.2344C58.7055 21.2344 58.0453 21.1133 57.4594 20.8711C56.8734 20.6211 56.4086 20.1953 56.0648 19.5938C55.7211 18.9922 55.5492 18.1602 55.5492 17.0977V10.125H53.7797V8.89453L55.6781 7.92188L56.5805 5.14453H58.3148V8.02734H62.0297V10.125H58.3148V17.0625C58.3148 17.7188 58.4789 18.207 58.807 18.5273C59.1352 18.8477 59.5687 19.0078 60.1078 19.0078Z" fill="#0A0A0A"/>
<path d="M69.4598 7.78125C70.6161 7.78125 71.6083 8.01953 72.4364 8.49609C73.2645 8.97266 73.9012 9.64844 74.3466 10.5234C74.7919 11.3984 75.0145 12.4453 75.0145 13.6641V15.1406H66.3544C66.3856 16.3984 66.7216 17.3672 67.3622 18.0469C68.0106 18.7266 68.9169 19.0664 70.0809 19.0664C70.9091 19.0664 71.6512 18.9883 72.3075 18.832C72.9716 18.668 73.6552 18.4297 74.3583 18.1172V20.3555C73.7098 20.6602 73.0497 20.8828 72.3778 21.0234C71.7059 21.1641 70.9012 21.2344 69.9637 21.2344C68.6903 21.2344 67.5692 20.9883 66.6005 20.4961C65.6395 19.9961 64.8856 19.2539 64.3387 18.2695C63.7997 17.2852 63.5302 16.0625 63.5302 14.6016C63.5302 13.1484 63.7762 11.9141 64.2684 10.8984C64.7606 9.88281 65.452 9.10938 66.3427 8.57812C67.2333 8.04688 68.2723 7.78125 69.4598 7.78125ZM69.4598 9.85547C68.5927 9.85547 67.8895 10.1367 67.3505 10.6992C66.8192 11.2617 66.5067 12.0859 66.413 13.1719H72.3192C72.3114 12.5234 72.202 11.9492 71.9911 11.4492C71.788 10.9492 71.4755 10.5586 71.0536 10.2773C70.6395 9.99609 70.1083 9.85547 69.4598 9.85547Z" fill="#0A0A0A"/>
</g>
<defs>
<clipPath id="clip0_0_1">
<rect width="1280" height="72" fill="white" transform="translate(-40 -24)"/>
</clipPath>
</defs>
</svg>
