<svg width="48" height="48" viewBox="0 0 24 24" fill="none" xmlns="http://www.w3.org/2000/svg"><path d="M19.584 13.5a1.481 1.481 0 0 1-.984 1.406l-4.894 1.8-1.8 4.894a1.5 1.5 0 0 1-2.812 0l-1.8-4.894-4.894-1.8a1.5 1.5 0 0 1 0-2.812l4.894-1.8 1.8-4.894a1.5 1.5 0 0 1 2.812 0l1.8 4.894 4.894 1.8a1.48 1.48 0 0 1 .984 1.406Zm-5.334-9h1.5V6a.75.75 0 1 0 1.5 0V4.5h1.5a.75.75 0 1 0 0-1.5h-1.5V1.5a.75.75 0 1 0-1.5 0V3h-1.5a.75.75 0 1 0 0 1.5Zm8.25 3h-.75v-.75a.75.75 0 1 0-1.5 0v.75h-.75a.75.75 0 1 0 0 1.5h.75v.75a.75.75 0 1 0 1.5 0V9h.75a.75.75 0 1 0 0-1.5Z" fill="#ECAA01"></path></svg>